<svg id="svg" version="1.1" xmlns="http://www.w3.org/2000/svg" xmlns:xlink="http://www.w3.org/1999/xlink" width="400" height="400" viewBox="0, 0, 400,400"><g id="svgg"><path id="path0" d="M192.500 4.719 C 191.840 4.759,189.680 4.888,187.700 5.006 C 85.198 11.119,4.705 96.933,4.705 200.100 C 4.705 320.769,112.965 412.636,232.000 392.978 C 344.728 374.361,417.712 262.814,389.602 152.100 C 368.716 69.838,298.395 11.294,212.900 4.991 C 210.118 4.786,194.795 4.582,192.500 4.719 M208.821 7.803 C 324.265 13.543,408.421 117.215,390.081 231.100 C 373.685 332.919,278.582 404.058,176.200 391.090 C 67.825 377.363,-7.258 277.005,10.119 169.100 C 25.574 73.127,111.978 2.988,208.821 7.803 M187.624 124.634 C 185.262 125.803,184.902 128.510,186.841 130.525 C 188.177 131.914,187.305 133.144,185.782 132.018 C 185.106 131.519,185.086 131.548,184.910 133.237 L 184.771 134.573 185.536 134.785 C 189.526 135.894,192.275 130.853,189.001 128.432 C 188.526 128.081,188.391 127.842,188.438 127.435 C 188.525 126.680,189.409 126.591,190.087 127.269 L 190.581 127.763 190.703 126.831 C 190.771 126.319,190.872 125.651,190.929 125.347 C 191.128 124.286,189.178 123.865,187.624 124.634 M175.182 124.450 C 175.172 124.478,174.877 126.795,174.526 129.600 L 173.888 134.700 176.178 134.757 C 178.781 134.821,178.709 134.856,178.865 133.450 L 178.981 132.400 177.991 132.400 C 176.795 132.400,176.828 132.637,177.400 128.200 C 177.941 124.000,178.036 124.400,176.500 124.400 C 175.785 124.400,175.192 124.422,175.182 124.450 M181.397 124.650 C 181.395 124.788,181.125 127.060,180.798 129.700 C 180.471 132.340,180.202 134.567,180.201 134.650 C 180.201 134.733,180.813 134.800,181.561 134.800 L 182.923 134.800 183.479 130.050 C 183.785 127.438,184.082 125.097,184.139 124.850 C 184.240 124.416,184.194 124.400,182.822 124.400 C 181.819 124.400,181.399 124.474,181.397 124.650 M192.311 124.650 C 192.269 124.788,192.183 125.328,192.121 125.850 L 192.008 126.800 192.670 126.800 C 193.593 126.800,193.573 126.608,193.073 130.646 C 192.824 132.656,192.616 134.412,192.610 134.550 C 192.603 134.726,192.999 134.800,193.957 134.800 L 195.315 134.800 195.807 130.850 L 196.300 126.900 197.061 126.837 C 197.892 126.769,197.914 126.737,198.079 125.350 L 198.192 124.400 195.290 124.400 C 193.142 124.400,192.367 124.465,192.311 124.650 M199.968 127.051 C 199.455 128.508,198.623 130.851,198.119 132.259 L 197.203 134.817 198.639 134.759 C 200.075 134.700,200.076 134.700,200.244 134.050 C 200.405 133.426,200.452 133.400,201.406 133.400 L 202.400 133.400 202.400 134.100 L 202.400 134.800 203.826 134.800 L 205.251 134.800 205.137 134.050 C 205.074 133.638,204.865 131.297,204.671 128.850 L 204.319 124.400 202.610 124.401 L 200.900 124.402 199.968 127.051 M212.512 125.027 C 212.289 126.339,211.400 133.744,211.400 134.290 L 211.400 134.845 213.472 134.769 C 217.234 134.629,218.900 132.803,218.900 128.820 C 218.900 125.577,217.902 124.566,214.567 124.432 L 212.627 124.355 212.512 125.027 M220.931 129.050 C 220.627 131.608,220.330 133.947,220.273 134.250 L 220.168 134.800 222.784 134.800 L 225.400 134.800 225.400 134.225 C 225.400 133.909,225.456 133.369,225.525 133.025 L 225.650 132.400 224.537 132.400 C 223.275 132.400,223.210 132.348,223.347 131.450 C 223.444 130.812,223.464 130.800,224.496 130.800 L 225.546 130.800 225.673 129.872 C 225.879 128.365,225.900 128.400,224.788 128.400 L 223.776 128.400 223.838 127.650 L 223.900 126.900 225.060 126.840 C 226.318 126.774,226.308 126.785,226.479 125.350 L 226.592 124.400 224.039 124.400 L 221.485 124.400 220.931 129.050 M228.382 124.450 C 228.372 124.478,228.077 126.795,227.726 129.600 L 227.088 134.700 229.378 134.757 C 231.981 134.821,231.909 134.856,232.065 133.450 L 232.181 132.400 231.191 132.400 C 229.995 132.400,230.028 132.637,230.600 128.200 C 231.141 124.000,231.236 124.400,229.700 124.400 C 228.985 124.400,228.392 124.422,228.382 124.450 M215.942 127.602 C 216.653 129.007,215.767 132.200,214.665 132.200 C 214.339 132.200,214.341 132.023,214.700 129.400 C 214.858 128.245,214.990 127.226,214.994 127.135 C 215.007 126.786,215.702 127.128,215.942 127.602 M202.200 129.400 C 202.200 131.187,202.196 131.200,201.700 131.200 C 201.093 131.200,201.091 131.147,201.631 129.174 C 202.173 127.196,202.200 127.207,202.200 129.400 M158.929 150.317 C 146.976 153.210,142.315 179.729,152.836 184.986 C 160.062 188.597,167.928 183.112,170.699 172.531 C 174.405 158.380,168.859 147.913,158.929 150.317 M329.129 150.317 C 317.176 153.210,312.515 179.729,323.036 184.986 C 330.262 188.597,338.128 183.112,340.899 172.531 C 344.605 158.380,339.059 147.913,329.129 150.317 M58.228 167.450 C 57.090 176.718,56.111 184.548,56.054 184.850 L 55.950 185.400 59.359 185.400 L 62.768 185.400 62.877 184.850 C 62.937 184.548,63.354 181.195,63.804 177.400 C 64.254 173.605,64.684 170.342,64.761 170.150 C 64.847 169.934,65.661 172.798,66.880 177.600 L 68.860 185.400 72.451 185.400 C 75.578 185.400,76.028 185.361,75.927 185.097 C 75.375 183.659,72.012 169.496,72.207 169.431 C 72.582 169.306,74.597 167.616,75.279 166.854 C 78.980 162.719,78.862 154.933,75.060 152.415 C 72.813 150.927,71.001 150.604,64.899 150.602 L 60.298 150.600 58.228 167.450 M82.633 167.350 C 81.503 176.563,80.528 184.393,80.467 184.750 L 80.355 185.400 83.760 185.400 L 87.165 185.400 87.285 184.650 C 87.516 183.203,91.399 151.495,91.399 151.050 C 91.400 150.601,91.391 150.600,88.044 150.600 L 84.689 150.600 82.633 167.350 M94.632 167.350 C 93.501 176.563,92.526 184.393,92.465 184.750 L 92.355 185.400 95.760 185.400 L 99.165 185.400 99.284 184.650 C 99.670 182.214,101.249 168.744,101.364 166.908 L 101.500 164.716 104.400 175.057 L 107.300 185.398 110.506 185.399 L 113.711 185.400 115.768 168.650 C 116.899 159.438,117.874 151.608,117.935 151.250 L 118.045 150.600 114.522 150.600 C 112.585 150.600,111.000 150.638,111.000 150.685 C 111.000 150.732,110.546 154.444,109.992 158.935 C 109.438 163.426,108.968 167.986,108.949 169.069 C 108.929 170.175,108.847 170.877,108.763 170.669 C 108.681 170.466,107.380 165.868,105.872 160.450 L 103.131 150.600 99.910 150.600 L 96.689 150.600 94.632 167.350 M121.432 167.350 C 120.301 176.563,119.326 184.393,119.265 184.750 L 119.155 185.400 122.560 185.400 L 125.965 185.400 126.084 184.650 C 126.470 182.214,128.049 168.744,128.164 166.908 L 128.300 164.716 131.200 175.057 L 134.100 185.398 137.306 185.399 L 140.511 185.400 142.568 168.650 C 143.699 159.438,144.674 151.608,144.735 151.250 L 144.845 150.600 141.322 150.600 C 139.385 150.600,137.800 150.638,137.800 150.685 C 137.800 150.732,137.346 154.444,136.792 158.935 C 136.238 163.426,135.768 167.986,135.749 169.069 C 135.729 170.175,135.647 170.877,135.563 170.669 C 135.481 170.466,134.180 165.868,132.672 160.450 L 129.931 150.600 126.710 150.600 L 123.489 150.600 121.432 167.350 M174.879 151.150 C 175.079 152.147,180.400 184.938,180.400 185.177 C 180.400 185.347,181.175 185.396,183.240 185.355 L 186.081 185.300 192.522 169.025 C 196.065 160.074,199.149 152.267,199.375 151.675 L 199.786 150.600 196.243 150.603 L 192.700 150.606 189.550 158.453 C 186.933 164.971,186.255 166.876,185.550 169.700 L 184.700 173.100 184.589 169.800 C 184.503 167.236,184.215 164.728,183.300 158.550 L 182.121 150.600 178.445 150.600 L 174.768 150.600 174.879 151.150 M206.642 151.150 C 205.418 154.562,194.600 185.257,194.600 185.318 C 194.600 185.363,196.124 185.400,197.986 185.400 L 201.372 185.400 202.331 182.500 L 203.290 179.600 206.723 179.600 L 210.155 179.600 210.268 180.250 C 210.330 180.608,210.437 181.755,210.507 182.800 C 210.699 185.687,210.265 185.400,214.436 185.400 L 218.045 185.400 217.924 184.550 C 217.857 184.083,216.993 176.545,216.003 167.800 C 215.014 159.055,214.154 151.608,214.093 151.250 L 213.982 150.600 210.411 150.600 L 206.839 150.600 206.642 151.150 M222.905 167.650 C 220.940 177.028,219.292 184.858,219.243 185.050 C 219.160 185.374,219.429 185.400,222.850 185.400 L 226.546 185.400 228.523 173.350 L 230.500 161.300 230.647 164.300 C 230.727 165.950,231.065 171.141,231.397 175.835 C 231.729 180.529,232.000 184.601,232.000 184.885 L 232.000 185.400 234.689 185.400 L 237.378 185.400 238.078 183.150 C 240.896 174.090,243.441 165.531,243.906 163.546 C 244.210 162.251,244.478 161.216,244.503 161.246 C 244.527 161.276,244.248 166.385,243.882 172.600 C 243.516 178.815,243.213 184.238,243.209 184.650 L 243.200 185.400 246.700 185.400 L 250.200 185.400 250.204 184.150 C 250.206 183.463,250.340 176.420,250.500 168.500 C 250.661 160.580,250.794 153.313,250.796 152.350 L 250.800 150.600 246.200 150.600 C 243.670 150.600,241.600 150.655,241.600 150.722 C 241.600 151.027,236.526 170.317,236.411 170.449 C 236.339 170.532,236.124 166.887,235.932 162.349 C 235.740 157.812,235.529 153.313,235.463 152.350 L 235.343 150.600 230.911 150.600 L 226.478 150.600 222.905 167.650 M258.000 150.965 C 258.000 151.281,254.212 182.264,253.894 184.550 L 253.775 185.400 260.648 185.400 L 267.520 185.400 267.862 182.550 C 268.050 180.983,268.203 179.543,268.202 179.350 C 268.200 179.030,267.904 179.000,264.800 179.000 C 262.930 179.000,261.400 178.940,261.400 178.867 C 261.400 178.572,262.221 172.068,262.311 171.650 C 262.406 171.208,262.459 171.200,265.404 171.200 C 267.052 171.200,268.400 171.147,268.400 171.083 C 268.400 170.843,269.004 165.876,269.109 165.250 L 269.218 164.600 266.209 164.600 C 263.470 164.600,263.202 164.569,263.217 164.250 C 263.227 164.058,263.429 162.370,263.667 160.500 L 264.100 157.100 267.550 157.045 C 270.174 157.004,271.000 156.930,271.000 156.737 C 271.000 156.430,271.560 151.923,271.694 151.150 L 271.790 150.600 264.895 150.600 C 258.357 150.600,258.000 150.619,258.000 150.965 M274.432 167.350 C 273.301 176.563,272.326 184.393,272.265 184.750 L 272.155 185.400 275.560 185.400 L 278.965 185.400 279.084 184.650 C 279.470 182.214,281.049 168.744,281.164 166.908 L 281.300 164.716 284.200 175.057 L 287.100 185.398 290.306 185.399 L 293.511 185.400 295.568 168.650 C 296.699 159.438,297.674 151.608,297.735 151.250 L 297.845 150.600 294.322 150.600 C 292.385 150.600,290.800 150.638,290.800 150.685 C 290.800 150.732,290.346 154.444,289.792 158.935 C 289.238 163.426,288.768 167.986,288.749 169.069 C 288.729 170.175,288.647 170.877,288.563 170.669 C 288.481 170.466,287.180 165.868,285.672 160.450 L 282.931 150.600 279.710 150.600 L 276.489 150.600 274.432 167.350 M300.307 151.250 C 300.217 151.778,299.600 156.746,299.600 156.944 C 299.600 156.975,300.770 157.000,302.200 157.000 C 304.702 157.000,304.800 157.016,304.800 157.417 C 304.800 157.820,301.715 183.129,301.480 184.650 L 301.365 185.400 304.782 185.400 C 306.662 185.400,308.204 185.333,308.210 185.250 C 308.215 185.168,309.003 178.800,309.961 171.100 L 311.702 157.100 314.401 157.000 L 317.100 156.900 317.435 154.200 C 317.619 152.715,317.776 151.297,317.785 151.050 L 317.800 150.600 309.109 150.600 L 300.418 150.600 300.307 151.250 M69.760 156.545 C 73.263 158.288,71.111 165.108,66.923 165.540 C 65.134 165.725,65.205 166.021,65.830 160.971 C 66.134 158.512,66.387 156.374,66.391 156.221 C 66.403 155.834,68.794 156.064,69.760 156.545 M162.334 156.788 C 166.787 159.504,164.137 177.701,159.069 179.205 C 155.894 180.148,154.188 176.995,154.466 170.701 C 154.897 160.929,158.546 154.478,162.334 156.788 M332.534 156.788 C 336.987 159.504,334.337 177.701,329.269 179.205 C 326.094 180.148,324.388 176.995,324.666 170.701 C 325.097 160.929,328.746 154.478,332.534 156.788 M209.485 170.326 C 209.658 172.210,209.800 173.852,209.800 173.976 C 209.800 174.129,209.034 174.200,207.379 174.200 C 205.151 174.200,204.969 174.172,205.101 173.850 C 206.154 171.281,207.962 165.113,208.634 161.800 L 208.897 160.500 209.034 163.700 C 209.109 165.460,209.312 168.442,209.485 170.326 M264.329 199.917 C 252.376 202.810,247.715 229.329,258.236 234.586 C 265.462 238.197,273.328 232.712,276.099 222.131 C 279.805 207.980,274.259 197.513,264.329 199.917 M121.433 216.950 C 120.303 226.163,119.328 233.993,119.267 234.350 L 119.155 235.000 122.560 235.000 L 125.965 235.000 126.085 234.250 C 126.316 232.803,130.199 201.095,130.199 200.650 C 130.200 200.201,130.191 200.200,126.844 200.200 L 123.489 200.200 121.433 216.950 M132.907 200.850 C 132.817 201.378,132.200 206.346,132.200 206.544 C 132.200 206.575,133.370 206.600,134.800 206.600 C 137.302 206.600,137.400 206.616,137.400 207.017 C 137.400 207.420,134.315 232.729,134.080 234.250 L 133.965 235.000 137.382 235.000 C 139.262 235.000,140.804 234.933,140.810 234.850 C 140.815 234.768,141.603 228.400,142.561 220.700 L 144.302 206.700 147.001 206.600 L 149.700 206.500 150.035 203.800 C 150.219 202.315,150.376 200.898,150.385 200.650 L 150.400 200.200 141.709 200.200 L 133.018 200.200 132.907 200.850 M157.842 200.750 C 156.618 204.162,145.800 234.857,145.800 234.918 C 145.800 234.963,147.324 235.000,149.186 235.000 L 152.572 235.000 153.531 232.100 L 154.490 229.200 157.923 229.200 L 161.355 229.200 161.468 229.850 C 161.530 230.207,161.637 231.355,161.707 232.400 C 161.899 235.287,161.465 235.000,165.636 235.000 L 169.245 235.000 169.124 234.150 C 169.057 233.683,168.193 226.145,167.203 217.400 C 166.214 208.655,165.354 201.208,165.293 200.850 L 165.182 200.200 161.611 200.200 L 158.039 200.200 157.842 200.750 M174.032 216.950 C 172.901 226.163,171.926 233.993,171.865 234.350 L 171.755 235.000 178.746 235.000 L 185.737 235.000 186.069 232.150 C 186.252 230.582,186.402 229.143,186.401 228.950 C 186.400 228.630,186.100 228.600,182.900 228.600 C 180.975 228.600,179.400 228.565,179.400 228.523 C 179.400 228.480,180.165 222.279,181.100 214.741 C 182.035 207.203,182.800 200.848,182.800 200.618 C 182.800 200.211,182.715 200.200,179.444 200.200 L 176.089 200.200 174.032 216.950 M191.033 216.950 C 189.903 226.163,188.928 233.993,188.867 234.350 L 188.755 235.000 192.160 235.000 L 195.565 235.000 195.685 234.250 C 195.916 232.803,199.799 201.095,199.799 200.650 C 199.800 200.201,199.791 200.200,196.444 200.200 L 193.089 200.200 191.033 216.950 M210.642 200.750 C 209.418 204.162,198.600 234.857,198.600 234.918 C 198.600 234.963,200.124 235.000,201.986 235.000 L 205.372 235.000 206.331 232.100 L 207.290 229.200 210.723 229.200 L 214.155 229.200 214.268 229.850 C 214.330 230.207,214.437 231.355,214.507 232.400 C 214.699 235.287,214.265 235.000,218.436 235.000 L 222.045 235.000 221.924 234.150 C 221.857 233.683,220.993 226.145,220.003 217.400 C 219.014 208.655,218.154 201.208,218.093 200.850 L 217.982 200.200 214.411 200.200 L 210.839 200.200 210.642 200.750 M226.832 216.950 C 225.701 226.163,224.726 233.993,224.665 234.350 L 224.555 235.000 227.960 235.000 L 231.365 235.000 231.484 234.250 C 231.870 231.814,233.449 218.344,233.564 216.508 L 233.700 214.316 236.600 224.657 L 239.500 234.998 242.706 234.999 L 245.911 235.000 247.968 218.250 C 249.099 209.038,250.074 201.208,250.135 200.850 L 250.245 200.200 246.722 200.200 C 244.785 200.200,243.200 200.238,243.200 200.285 C 243.200 200.332,242.746 204.044,242.192 208.535 C 241.638 213.026,241.168 217.586,241.149 218.669 C 241.129 219.775,241.047 220.477,240.963 220.269 C 240.881 220.066,239.580 215.468,238.072 210.050 L 235.331 200.200 232.110 200.200 L 228.889 200.200 226.832 216.950 M267.734 206.388 C 272.187 209.104,269.537 227.301,264.469 228.805 C 261.294 229.748,259.588 226.595,259.866 220.301 C 260.297 210.529,263.946 204.078,267.734 206.388 M160.685 219.926 C 160.858 221.810,161.000 223.452,161.000 223.576 C 161.000 223.729,160.234 223.800,158.579 223.800 C 156.351 223.800,156.169 223.772,156.301 223.450 C 157.354 220.881,159.162 214.713,159.834 211.400 L 160.097 210.100 160.234 213.300 C 160.309 215.060,160.512 218.042,160.685 219.926 M213.485 219.926 C 213.658 221.810,213.800 223.452,213.800 223.576 C 213.800 223.729,213.034 223.800,211.379 223.800 C 209.151 223.800,208.969 223.772,209.101 223.450 C 210.154 220.881,211.962 214.713,212.634 211.400 L 212.897 210.100 213.034 213.300 C 213.109 215.060,213.312 218.042,213.485 219.926 M191.700 286.743 C 184.144 294.055,151.389 325.697,147.700 329.248 L 146.100 330.788 200.100 330.788 L 254.100 330.788 252.500 329.248 C 251.620 328.402,245.587 322.577,239.094 316.304 C 232.600 310.032,221.231 299.050,213.828 291.900 C 206.425 284.750,200.263 278.879,200.134 278.854 C 200.005 278.828,196.210 282.378,191.700 286.743 " stroke="none" fill="#f7f7fb" fill-rule="evenodd"></path><path id="path1" d="M190.200 2.720 C 189.705 2.760,187.860 2.890,186.100 3.008 C 91.168 9.384,13.501 84.333,3.621 179.100 C 2.788 187.089,2.700 189.088,2.700 200.100 C 2.700 211.112,2.788 213.111,3.621 221.100 C 13.229 313.258,86.942 386.971,179.100 396.579 C 187.089 397.412,189.088 397.500,200.100 397.500 C 211.112 397.500,213.111 397.412,221.100 396.579 C 313.258 386.971,386.971 313.258,396.579 221.100 C 397.412 213.111,397.500 211.112,397.500 200.100 C 397.500 146.827,377.281 97.863,339.809 60.391 C 306.316 26.898,264.097 7.417,215.600 3.079 C 212.339 2.787,192.795 2.511,190.200 2.720 M212.900 4.991 C 316.644 12.639,395.495 96.895,395.495 200.100 C 395.495 308.245,308.245 395.495,200.100 395.495 C 76.287 395.495,-16.225 282.000,8.632 160.600 C 26.237 74.617,100.355 10.215,187.700 5.006 C 189.680 4.888,191.840 4.759,192.500 4.719 C 194.795 4.582,210.118 4.786,212.900 4.991 M190.900 7.813 C 72.816 13.830,-12.111 123.094,11.515 238.606 C 32.811 342.726,134.556 409.966,238.606 388.685 C 345.691 366.783,413.135 260.113,386.993 153.994 C 365.037 64.867,282.259 3.159,190.900 7.813 M201.574 19.623 L 203.134 24.300 208.488 24.353 L 213.843 24.407 209.671 27.423 C 207.377 29.082,205.433 30.502,205.351 30.579 C 205.269 30.655,205.824 32.577,206.583 34.850 C 208.176 39.617,208.330 40.200,207.994 40.200 C 207.864 40.200,206.021 38.940,203.900 37.400 C 201.779 35.860,199.979 34.600,199.900 34.600 C 199.821 34.600,198.021 35.860,195.900 37.400 C 193.779 38.940,191.936 40.200,191.806 40.200 C 191.470 40.200,191.624 39.617,193.217 34.850 C 193.976 32.577,194.531 30.655,194.449 30.579 C 194.367 30.502,192.423 29.082,190.129 27.423 L 185.957 24.407 191.312 24.353 L 196.667 24.300 198.254 19.538 C 199.127 16.918,199.880 14.814,199.928 14.861 C 199.975 14.908,200.716 17.051,201.574 19.623 M146.402 28.900 C 147.848 30.770,149.099 32.421,149.183 32.568 C 149.303 32.778,150.393 32.463,154.206 31.114 C 156.885 30.167,159.150 29.417,159.240 29.447 C 159.330 29.477,158.062 31.435,156.423 33.800 L 153.444 38.098 154.389 39.299 C 154.909 39.960,155.781 41.085,156.328 41.800 C 156.875 42.515,157.796 43.712,158.374 44.461 C 158.953 45.210,159.398 45.893,159.363 45.979 C 159.328 46.066,157.251 45.512,154.747 44.748 C 152.242 43.985,150.070 43.407,149.920 43.465 C 149.769 43.523,148.398 45.383,146.873 47.598 L 144.100 51.627 143.971 50.763 C 143.899 50.288,143.818 48.415,143.790 46.600 C 143.762 44.785,143.685 42.858,143.620 42.319 L 143.500 41.337 139.015 39.969 C 136.548 39.216,134.411 38.600,134.265 38.600 C 134.119 38.600,134.000 38.519,134.000 38.419 C 134.000 38.237,134.705 37.967,140.375 35.982 L 143.451 34.904 143.310 29.902 C 143.184 25.438,143.201 24.932,143.471 25.200 C 143.638 25.365,144.957 27.030,146.402 28.900 M256.493 29.952 L 256.349 34.904 259.425 35.982 C 265.095 37.967,265.800 38.237,265.800 38.419 C 265.800 38.519,265.681 38.600,265.535 38.600 C 265.389 38.600,263.252 39.216,260.785 39.969 L 256.300 41.337 256.180 42.319 C 256.115 42.858,256.038 44.785,256.010 46.600 C 255.982 48.415,255.901 50.288,255.829 50.763 L 255.700 51.627 252.927 47.598 C 251.402 45.383,250.031 43.523,249.880 43.465 C 249.730 43.407,247.558 43.985,245.053 44.748 C 242.549 45.512,240.472 46.066,240.437 45.979 C 240.402 45.893,240.847 45.210,241.426 44.461 C 242.004 43.712,242.925 42.515,243.472 41.800 C 244.019 41.085,244.891 39.960,245.411 39.299 L 246.356 38.098 243.377 33.800 C 241.738 31.435,240.470 29.477,240.560 29.447 C 240.650 29.417,242.915 30.167,245.594 31.114 C 249.406 32.462,250.497 32.778,250.616 32.568 C 250.903 32.064,256.423 25.000,256.530 25.000 C 256.589 25.000,256.572 27.229,256.493 29.952 M108.596 50.750 C 108.178 52.001,105.800 60.005,105.800 60.158 C 105.800 60.322,106.577 60.876,111.230 64.031 C 114.659 66.356,114.758 66.196,109.874 66.223 C 107.579 66.236,105.298 66.267,104.807 66.291 L 103.914 66.336 102.497 71.061 C 101.718 73.659,101.027 75.840,100.960 75.907 C 100.825 76.041,100.501 75.215,98.796 70.400 C 98.153 68.585,97.570 66.953,97.501 66.774 C 97.388 66.480,96.868 66.458,92.288 66.552 C 89.489 66.610,87.200 66.612,87.200 66.557 C 87.200 66.502,89.005 65.082,91.211 63.401 C 94.251 61.086,95.191 60.268,95.096 60.023 C 95.026 59.845,94.472 58.305,93.864 56.600 C 93.256 54.895,92.547 52.938,92.288 52.250 C 91.671 50.611,91.617 50.591,95.980 53.596 C 98.052 55.024,99.878 56.243,100.037 56.303 C 100.212 56.371,101.929 55.191,104.397 53.307 C 108.750 49.985,108.877 49.908,108.596 50.750 M295.403 53.307 C 297.871 55.191,299.588 56.371,299.763 56.303 C 299.922 56.243,301.748 55.024,303.820 53.596 C 308.183 50.591,308.129 50.611,307.512 52.250 C 307.253 52.938,306.544 54.895,305.936 56.600 C 305.328 58.305,304.774 59.845,304.704 60.023 C 304.609 60.268,305.549 61.086,308.589 63.401 C 310.795 65.082,312.600 66.502,312.600 66.557 C 312.600 66.612,310.311 66.610,307.512 66.552 C 302.932 66.458,302.412 66.480,302.299 66.774 C 302.230 66.953,301.647 68.585,301.004 70.400 C 299.299 75.215,298.975 76.041,298.840 75.907 C 298.773 75.840,298.082 73.659,297.303 71.061 L 295.886 66.336 294.993 66.291 C 294.502 66.267,292.221 66.236,289.926 66.223 C 285.042 66.196,285.141 66.356,288.570 64.031 C 293.223 60.876,294.000 60.322,294.000 60.158 C 294.000 60.005,291.622 52.001,291.204 50.750 C 290.923 49.908,291.050 49.985,295.403 53.307 M67.959 89.625 L 68.100 94.697 72.853 96.091 C 78.045 97.614,78.075 97.634,76.194 98.281 C 75.482 98.527,73.390 99.250,71.544 99.888 L 68.189 101.050 68.310 106.175 L 68.430 111.300 67.827 110.600 C 67.496 110.215,66.116 108.444,64.762 106.665 C 63.408 104.886,62.194 103.384,62.065 103.327 C 61.936 103.271,59.751 103.951,57.209 104.840 C 54.668 105.728,52.539 106.406,52.480 106.346 C 52.420 106.287,53.575 104.497,55.046 102.369 C 56.517 100.241,57.789 98.388,57.872 98.250 C 58.031 97.987,57.652 97.452,54.038 92.840 C 52.891 91.377,51.990 90.143,52.036 90.097 C 52.132 90.001,52.780 90.177,57.883 91.683 C 59.964 92.297,61.681 92.777,61.699 92.750 C 61.717 92.722,62.439 91.665,63.303 90.400 C 66.405 85.858,67.675 84.125,67.746 84.338 C 67.786 84.457,67.881 86.836,67.959 89.625 M335.210 88.547 C 336.782 90.831,338.083 92.722,338.101 92.750 C 338.119 92.777,339.836 92.297,341.917 91.683 C 347.020 90.177,347.668 90.001,347.764 90.097 C 347.810 90.143,346.909 91.377,345.762 92.840 C 342.148 97.452,341.769 97.987,341.928 98.250 C 342.011 98.388,343.283 100.241,344.754 102.369 C 346.225 104.497,347.380 106.287,347.320 106.346 C 347.261 106.406,345.132 105.728,342.591 104.840 C 340.049 103.951,337.864 103.271,337.735 103.327 C 337.606 103.384,336.392 104.886,335.038 106.665 C 333.684 108.444,332.304 110.215,331.973 110.600 L 331.370 111.300 331.490 106.175 L 331.611 101.050 328.256 99.888 C 326.410 99.250,324.318 98.527,323.606 98.281 C 321.725 97.634,321.755 97.614,326.947 96.091 L 331.700 94.697 331.822 90.598 C 331.890 88.344,331.957 85.977,331.972 85.338 C 332.008 83.837,331.884 83.715,335.210 88.547 M190.323 124.497 C 190.944 124.756,191.020 124.863,190.929 125.347 C 190.872 125.651,190.771 126.319,190.703 126.831 L 190.581 127.763 190.087 127.269 C 189.409 126.591,188.525 126.680,188.438 127.435 C 188.391 127.842,188.526 128.081,189.001 128.432 C 192.275 130.853,189.526 135.894,185.536 134.785 L 184.771 134.573 184.910 133.237 C 185.086 131.548,185.106 131.519,185.782 132.018 C 187.305 133.144,188.177 131.914,186.841 130.525 C 184.045 127.619,186.719 122.991,190.323 124.497 M177.800 124.750 C 177.800 124.942,177.620 126.495,177.400 128.200 C 176.828 132.637,176.795 132.400,177.991 132.400 L 178.981 132.400 178.865 133.450 C 178.709 134.856,178.781 134.821,176.178 134.757 L 173.888 134.700 174.526 129.600 C 174.877 126.795,175.172 124.478,175.182 124.450 C 175.286 124.163,177.800 124.451,177.800 124.750 M184.139 124.850 C 184.082 125.097,183.785 127.438,183.479 130.050 L 182.923 134.800 181.561 134.800 C 180.813 134.800,180.201 134.733,180.201 134.650 C 180.202 134.567,180.471 132.340,180.798 129.700 C 181.125 127.060,181.395 124.788,181.397 124.650 C 181.399 124.474,181.819 124.400,182.822 124.400 C 184.194 124.400,184.240 124.416,184.139 124.850 M198.079 125.350 C 197.914 126.737,197.892 126.769,197.061 126.837 L 196.300 126.900 195.807 130.850 L 195.315 134.800 193.957 134.800 C 192.999 134.800,192.603 134.726,192.610 134.550 C 192.616 134.412,192.824 132.656,193.073 130.646 C 193.573 126.608,193.593 126.800,192.670 126.800 L 192.008 126.800 192.121 125.850 C 192.183 125.328,192.269 124.788,192.311 124.650 C 192.367 124.465,193.142 124.400,195.290 124.400 L 198.192 124.400 198.079 125.350 M204.671 128.850 C 204.865 131.297,205.074 133.638,205.137 134.050 L 205.251 134.800 203.826 134.800 L 202.400 134.800 202.400 134.100 L 202.400 133.400 201.406 133.400 C 200.452 133.400,200.405 133.426,200.244 134.050 C 200.076 134.700,200.075 134.700,198.639 134.759 L 197.203 134.817 198.119 132.259 C 198.623 130.851,199.455 128.508,199.968 127.051 L 200.900 124.402 202.610 124.401 L 204.319 124.400 204.671 128.850 M217.244 124.965 C 219.881 126.595,219.430 132.293,216.522 134.088 C 215.632 134.638,215.359 134.699,213.472 134.769 L 211.400 134.845 211.400 134.290 C 211.400 133.744,212.289 126.339,212.512 125.027 L 212.627 124.355 214.567 124.432 C 216.149 124.496,216.644 124.595,217.244 124.965 M226.479 125.350 C 226.308 126.785,226.318 126.774,225.060 126.840 L 223.900 126.900 223.838 127.650 L 223.776 128.400 224.788 128.400 C 225.900 128.400,225.879 128.365,225.673 129.872 L 225.546 130.800 224.496 130.800 C 223.464 130.800,223.444 130.812,223.347 131.450 C 223.210 132.348,223.275 132.400,224.537 132.400 L 225.650 132.400 225.525 133.025 C 225.456 133.369,225.400 133.909,225.400 134.225 L 225.400 134.800 222.784 134.800 L 220.168 134.800 220.273 134.250 C 220.330 133.947,220.627 131.608,220.931 129.050 L 221.485 124.400 224.039 124.400 L 226.592 124.400 226.479 125.350 M231.000 124.750 C 231.000 124.942,230.820 126.495,230.600 128.200 C 230.028 132.637,229.995 132.400,231.191 132.400 L 232.181 132.400 232.065 133.450 C 231.909 134.856,231.981 134.821,229.378 134.757 L 227.088 134.700 227.726 129.600 C 228.077 126.795,228.372 124.478,228.382 124.450 C 228.486 124.163,231.000 124.451,231.000 124.750 M214.994 127.135 C 214.990 127.226,214.858 128.245,214.700 129.400 C 214.341 132.023,214.339 132.200,214.665 132.200 C 215.767 132.200,216.653 129.007,215.942 127.602 C 215.702 127.128,215.007 126.786,214.994 127.135 M201.631 129.174 C 201.091 131.147,201.093 131.200,201.700 131.200 C 202.196 131.200,202.200 131.187,202.200 129.400 C 202.200 127.207,202.173 127.196,201.631 129.174 M40.656 132.800 C 41.274 134.835,41.938 137.018,42.131 137.650 L 42.482 138.800 43.491 138.807 C 46.909 138.832,52.446 138.980,52.514 139.048 C 52.616 139.149,51.862 139.704,48.156 142.261 C 47.465 142.737,46.338 143.516,45.650 143.991 C 44.963 144.467,44.403 144.911,44.406 144.978 C 44.409 145.045,45.071 147.215,45.876 149.800 C 46.681 152.385,47.316 154.530,47.287 154.566 C 47.202 154.673,46.314 154.050,42.707 151.355 C 40.833 149.956,39.188 148.808,39.052 148.805 C 38.819 148.800,37.786 149.469,35.200 151.299 C 34.595 151.727,33.695 152.346,33.200 152.675 C 32.705 153.003,31.958 153.537,31.541 153.860 C 30.411 154.735,30.428 154.618,32.172 149.521 L 33.782 144.815 32.411 143.757 C 31.657 143.176,29.865 141.845,28.429 140.800 C 26.992 139.755,25.813 138.835,25.808 138.756 C 25.804 138.676,28.060 138.631,30.823 138.656 L 35.847 138.700 37.552 133.738 C 38.489 131.009,39.318 128.849,39.394 128.938 C 39.469 129.027,40.037 130.765,40.656 132.800 M362.273 133.812 L 363.955 138.700 368.977 138.656 C 371.740 138.631,373.996 138.676,373.992 138.756 C 373.987 138.835,372.808 139.755,371.371 140.800 C 369.935 141.845,368.143 143.176,367.389 143.757 L 366.018 144.815 367.628 149.521 C 369.372 154.618,369.389 154.735,368.259 153.860 C 367.842 153.537,367.095 153.003,366.600 152.675 C 366.105 152.346,365.205 151.727,364.600 151.299 C 362.014 149.469,360.981 148.800,360.748 148.805 C 360.612 148.808,358.967 149.956,357.093 151.355 C 353.486 154.050,352.598 154.673,352.513 154.566 C 352.484 154.530,353.119 152.385,353.924 149.800 C 354.729 147.215,355.391 145.045,355.394 144.978 C 355.397 144.911,354.838 144.467,354.150 143.991 C 353.463 143.516,352.335 142.737,351.644 142.261 C 347.938 139.704,347.184 139.149,347.286 139.048 C 347.354 138.979,352.909 138.832,356.326 138.807 C 357.340 138.800,357.354 138.792,357.553 138.050 C 357.741 137.349,360.099 129.634,360.312 129.021 C 360.466 128.579,360.504 128.670,362.273 133.812 M164.064 150.299 C 171.621 152.267,174.183 164.102,169.613 175.931 C 164.202 189.939,148.454 189.229,147.221 174.922 C 145.933 159.965,154.286 147.752,164.064 150.299 M334.264 150.299 C 341.821 152.267,344.383 164.102,339.813 175.931 C 334.402 189.939,318.654 189.229,317.421 174.922 C 316.133 159.965,324.486 147.752,334.264 150.299 M70.757 150.807 C 75.764 151.619,77.898 154.158,77.899 159.300 C 77.899 162.538,77.113 164.805,75.279 166.854 C 74.597 167.616,72.582 169.306,72.207 169.431 C 72.012 169.496,75.375 183.659,75.927 185.097 C 76.028 185.361,75.578 185.400,72.451 185.400 L 68.860 185.400 66.880 177.600 C 65.661 172.798,64.847 169.934,64.761 170.150 C 64.684 170.342,64.254 173.605,63.804 177.400 C 63.354 181.195,62.937 184.548,62.877 184.850 L 62.768 185.400 59.359 185.400 L 55.950 185.400 56.054 184.850 C 56.111 184.548,57.090 176.718,58.228 167.450 L 60.298 150.600 64.899 150.602 C 67.430 150.602,70.066 150.695,70.757 150.807 M91.399 151.050 C 91.399 151.495,87.516 183.203,87.285 184.650 L 87.165 185.400 83.760 185.400 L 80.355 185.400 80.467 184.750 C 80.528 184.393,81.503 176.563,82.633 167.350 L 84.689 150.600 88.044 150.600 C 91.391 150.600,91.400 150.601,91.399 151.050 M105.872 160.450 C 107.380 165.868,108.681 170.466,108.763 170.669 C 108.847 170.877,108.929 170.175,108.949 169.069 C 108.968 167.986,109.438 163.426,109.992 158.935 C 110.546 154.444,111.000 150.732,111.000 150.685 C 111.000 150.638,112.585 150.600,114.522 150.600 L 118.045 150.600 117.935 151.250 C 117.874 151.608,116.899 159.438,115.768 168.650 L 113.711 185.400 110.506 185.399 L 107.300 185.398 104.400 175.057 L 101.500 164.716 101.364 166.908 C 101.249 168.744,99.670 182.214,99.284 184.650 L 99.165 185.400 95.760 185.400 L 92.355 185.400 92.465 184.750 C 92.526 184.393,93.501 176.563,94.632 167.350 L 96.689 150.600 99.910 150.600 L 103.131 150.600 105.872 160.450 M132.672 160.450 C 134.180 165.868,135.481 170.466,135.563 170.669 C 135.647 170.877,135.729 170.175,135.749 169.069 C 135.768 167.986,136.238 163.426,136.792 158.935 C 137.346 154.444,137.800 150.732,137.800 150.685 C 137.800 150.638,139.385 150.600,141.322 150.600 L 144.845 150.600 144.735 151.250 C 144.674 151.608,143.699 159.438,142.568 168.650 L 140.511 185.400 137.306 185.399 L 134.100 185.398 131.200 175.057 L 128.300 164.716 128.164 166.908 C 128.049 168.744,126.470 182.214,126.084 184.650 L 125.965 185.400 122.560 185.400 L 119.155 185.400 119.265 184.750 C 119.326 184.393,120.301 176.563,121.432 167.350 L 123.489 150.600 126.710 150.600 L 129.931 150.600 132.672 160.450 M183.300 158.550 C 184.215 164.728,184.503 167.236,184.589 169.800 L 184.700 173.100 185.550 169.700 C 186.255 166.876,186.933 164.971,189.550 158.453 L 192.700 150.606 196.243 150.603 L 199.786 150.600 199.375 151.675 C 199.149 152.267,196.065 160.074,192.522 169.025 L 186.081 185.300 183.240 185.355 C 181.175 185.396,180.400 185.347,180.400 185.177 C 180.400 184.938,175.079 152.147,174.879 151.150 L 174.768 150.600 178.445 150.600 L 182.121 150.600 183.300 158.550 M214.093 151.250 C 214.154 151.608,215.014 159.055,216.003 167.800 C 216.993 176.545,217.857 184.083,217.924 184.550 L 218.045 185.400 214.436 185.400 C 210.265 185.400,210.699 185.687,210.507 182.800 C 210.437 181.755,210.330 180.608,210.268 180.250 L 210.155 179.600 206.723 179.600 L 203.290 179.600 202.331 182.500 L 201.372 185.400 197.986 185.400 C 196.124 185.400,194.600 185.363,194.600 185.318 C 194.600 185.257,205.418 154.562,206.642 151.150 L 206.839 150.600 210.411 150.600 L 213.982 150.600 214.093 151.250 M235.463 152.350 C 235.529 153.313,235.740 157.812,235.932 162.349 C 236.124 166.887,236.339 170.532,236.411 170.449 C 236.526 170.317,241.600 151.027,241.600 150.722 C 241.600 150.655,243.670 150.600,246.200 150.600 L 250.800 150.600 250.796 152.350 C 250.794 153.313,250.661 160.580,250.500 168.500 C 250.340 176.420,250.206 183.463,250.204 184.150 L 250.200 185.400 246.700 185.400 L 243.200 185.400 243.209 184.650 C 243.213 184.238,243.516 178.815,243.882 172.600 C 244.248 166.385,244.527 161.276,244.503 161.246 C 244.478 161.216,244.210 162.251,243.906 163.546 C 243.441 165.531,240.896 174.090,238.078 183.150 L 237.378 185.400 234.689 185.400 L 232.000 185.400 232.000 184.885 C 232.000 184.601,231.729 180.529,231.397 175.835 C 231.065 171.141,230.727 165.950,230.647 164.300 L 230.500 161.300 228.523 173.350 L 226.546 185.400 222.850 185.400 C 219.429 185.400,219.160 185.374,219.243 185.050 C 219.292 184.858,220.940 177.028,222.905 167.650 L 226.478 150.600 230.911 150.600 L 235.343 150.600 235.463 152.350 M271.694 151.150 C 271.560 151.923,271.000 156.430,271.000 156.737 C 271.000 156.930,270.174 157.004,267.550 157.045 L 264.100 157.100 263.667 160.500 C 263.429 162.370,263.227 164.058,263.217 164.250 C 263.202 164.569,263.470 164.600,266.209 164.600 L 269.218 164.600 269.109 165.250 C 269.004 165.876,268.400 170.843,268.400 171.083 C 268.400 171.147,267.052 171.200,265.404 171.200 C 262.459 171.200,262.406 171.208,262.311 171.650 C 262.221 172.068,261.400 178.572,261.400 178.867 C 261.400 178.940,262.930 179.000,264.800 179.000 C 267.904 179.000,268.200 179.030,268.202 179.350 C 268.203 179.543,268.050 180.983,267.862 182.550 L 267.520 185.400 260.648 185.400 L 253.775 185.400 253.894 184.550 C 254.212 182.264,258.000 151.281,258.000 150.965 C 258.000 150.619,258.357 150.600,264.895 150.600 L 271.790 150.600 271.694 151.150 M285.672 160.450 C 287.180 165.868,288.481 170.466,288.563 170.669 C 288.647 170.877,288.729 170.175,288.749 169.069 C 288.768 167.986,289.238 163.426,289.792 158.935 C 290.346 154.444,290.800 150.732,290.800 150.685 C 290.800 150.638,292.385 150.600,294.322 150.600 L 297.845 150.600 297.735 151.250 C 297.674 151.608,296.699 159.438,295.568 168.650 L 293.511 185.400 290.306 185.399 L 287.100 185.398 284.200 175.057 L 281.300 164.716 281.164 166.908 C 281.049 168.744,279.470 182.214,279.084 184.650 L 278.965 185.400 275.560 185.400 L 272.155 185.400 272.265 184.750 C 272.326 184.393,273.301 176.563,274.432 167.350 L 276.489 150.600 279.710 150.600 L 282.931 150.600 285.672 160.450 M317.785 151.050 C 317.776 151.297,317.619 152.715,317.435 154.200 L 317.100 156.900 314.401 157.000 L 311.702 157.100 309.961 171.100 C 309.003 178.800,308.215 185.168,308.210 185.250 C 308.204 185.333,306.662 185.400,304.782 185.400 L 301.365 185.400 301.480 184.650 C 301.715 183.129,304.800 157.820,304.800 157.417 C 304.800 157.016,304.702 157.000,302.200 157.000 C 300.770 157.000,299.600 156.975,299.600 156.944 C 299.600 156.746,300.217 151.778,300.307 151.250 L 300.418 150.600 309.109 150.600 L 317.800 150.600 317.785 151.050 M66.391 156.221 C 66.387 156.374,66.134 158.512,65.830 160.971 C 65.205 166.021,65.134 165.725,66.923 165.540 C 71.111 165.108,73.263 158.288,69.760 156.545 C 68.794 156.064,66.403 155.834,66.391 156.221 M159.500 156.678 C 154.954 158.661,152.498 174.867,156.184 178.553 C 159.062 181.431,162.768 177.232,164.085 169.600 C 165.621 160.697,163.566 154.903,159.500 156.678 M329.700 156.678 C 325.154 158.661,322.698 174.867,326.384 178.553 C 329.262 181.431,332.968 177.232,334.285 169.600 C 335.821 160.697,333.766 154.903,329.700 156.678 M208.634 161.800 C 207.962 165.113,206.154 171.281,205.101 173.850 C 204.969 174.172,205.151 174.200,207.379 174.200 C 209.034 174.200,209.800 174.129,209.800 173.976 C 209.800 173.852,209.658 172.210,209.485 170.326 C 209.312 168.442,209.109 165.460,209.034 163.700 L 208.897 160.500 208.634 161.800 M25.000 183.351 C 27.156 186.578,30.667 191.017,30.968 190.897 C 31.151 190.824,32.470 190.377,33.900 189.904 C 35.330 189.430,36.973 188.855,37.550 188.625 C 38.127 188.394,38.600 188.245,38.600 188.293 C 38.600 188.340,38.925 188.244,39.322 188.078 C 40.462 187.602,40.376 187.803,38.074 191.003 C 36.878 192.665,35.567 194.503,35.160 195.086 L 34.419 196.148 37.421 200.196 C 39.072 202.422,40.391 204.276,40.352 204.315 C 40.280 204.387,35.320 202.909,32.300 201.917 L 30.700 201.391 30.248 201.945 C 30.000 202.250,28.657 204.097,27.263 206.050 C 25.869 208.003,24.656 209.600,24.568 209.600 C 24.479 209.600,24.383 207.335,24.353 204.567 L 24.300 199.533 22.600 198.980 C 21.665 198.675,19.573 198.012,17.950 197.506 C 14.666 196.481,14.553 196.389,16.050 195.944 C 17.637 195.473,24.023 193.243,24.150 193.116 C 24.211 193.055,24.241 190.664,24.217 187.803 C 24.170 182.332,24.201 182.155,25.000 183.351 M375.583 187.803 C 375.559 190.664,375.589 193.055,375.650 193.116 C 375.777 193.243,382.163 195.473,383.750 195.944 C 385.247 196.389,385.134 196.481,381.850 197.506 C 380.228 198.012,378.135 198.675,377.200 198.980 L 375.500 199.533 375.447 204.567 C 375.417 207.335,375.321 209.600,375.232 209.600 C 375.144 209.600,373.931 208.003,372.537 206.050 C 371.143 204.097,369.800 202.250,369.552 201.945 L 369.100 201.391 367.500 201.917 C 364.480 202.909,359.520 204.387,359.448 204.315 C 359.409 204.276,360.728 202.422,362.379 200.196 L 365.381 196.148 364.640 195.086 C 364.233 194.503,362.922 192.665,361.726 191.003 C 359.424 187.803,359.338 187.602,360.478 188.078 C 360.875 188.244,361.200 188.340,361.200 188.293 C 361.200 188.245,361.673 188.394,362.250 188.625 C 362.828 188.855,364.470 189.430,365.900 189.904 C 367.330 190.377,368.649 190.824,368.832 190.897 C 369.133 191.017,372.644 186.578,374.800 183.351 C 375.599 182.155,375.630 182.332,375.583 187.803 M269.464 199.899 C 277.021 201.867,279.583 213.702,275.013 225.531 C 269.602 239.539,253.854 238.829,252.621 224.522 C 251.333 209.565,259.686 197.352,269.464 199.899 M130.199 200.650 C 130.199 201.095,126.316 232.803,126.085 234.250 L 125.965 235.000 122.560 235.000 L 119.155 235.000 119.267 234.350 C 119.328 233.993,120.303 226.163,121.433 216.950 L 123.489 200.200 126.844 200.200 C 130.191 200.200,130.200 200.201,130.199 200.650 M150.385 200.650 C 150.376 200.898,150.219 202.315,150.035 203.800 L 149.700 206.500 147.001 206.600 L 144.302 206.700 142.561 220.700 C 141.603 228.400,140.815 234.768,140.810 234.850 C 140.804 234.933,139.262 235.000,137.382 235.000 L 133.965 235.000 134.080 234.250 C 134.315 232.729,137.400 207.420,137.400 207.017 C 137.400 206.616,137.302 206.600,134.800 206.600 C 133.370 206.600,132.200 206.575,132.200 206.544 C 132.200 206.346,132.817 201.378,132.907 200.850 L 133.018 200.200 141.709 200.200 L 150.400 200.200 150.385 200.650 M165.293 200.850 C 165.354 201.208,166.214 208.655,167.203 217.400 C 168.193 226.145,169.057 233.683,169.124 234.150 L 169.245 235.000 165.636 235.000 C 161.465 235.000,161.899 235.287,161.707 232.400 C 161.637 231.355,161.530 230.207,161.468 229.850 L 161.355 229.200 157.923 229.200 L 154.490 229.200 153.531 232.100 L 152.572 235.000 149.186 235.000 C 147.324 235.000,145.800 234.963,145.800 234.918 C 145.800 234.857,156.618 204.162,157.842 200.750 L 158.039 200.200 161.611 200.200 L 165.182 200.200 165.293 200.850 M182.800 200.618 C 182.800 200.848,182.035 207.203,181.100 214.741 C 180.165 222.279,179.400 228.480,179.400 228.523 C 179.400 228.565,180.975 228.600,182.900 228.600 C 186.100 228.600,186.400 228.630,186.401 228.950 C 186.402 229.143,186.252 230.582,186.069 232.150 L 185.737 235.000 178.746 235.000 L 171.755 235.000 171.865 234.350 C 171.926 233.993,172.901 226.163,174.032 216.950 L 176.089 200.200 179.444 200.200 C 182.715 200.200,182.800 200.211,182.800 200.618 M199.799 200.650 C 199.799 201.095,195.916 232.803,195.685 234.250 L 195.565 235.000 192.160 235.000 L 188.755 235.000 188.867 234.350 C 188.928 233.993,189.903 226.163,191.033 216.950 L 193.089 200.200 196.444 200.200 C 199.791 200.200,199.800 200.201,199.799 200.650 M218.093 200.850 C 218.154 201.208,219.014 208.655,220.003 217.400 C 220.993 226.145,221.857 233.683,221.924 234.150 L 222.045 235.000 218.436 235.000 C 214.265 235.000,214.699 235.287,214.507 232.400 C 214.437 231.355,214.330 230.207,214.268 229.850 L 214.155 229.200 210.723 229.200 L 207.290 229.200 206.331 232.100 L 205.372 235.000 201.986 235.000 C 200.124 235.000,198.600 234.963,198.600 234.918 C 198.600 234.857,209.418 204.162,210.642 200.750 L 210.839 200.200 214.411 200.200 L 217.982 200.200 218.093 200.850 M238.072 210.050 C 239.580 215.468,240.881 220.066,240.963 220.269 C 241.047 220.477,241.129 219.775,241.149 218.669 C 241.168 217.586,241.638 213.026,242.192 208.535 C 242.746 204.044,243.200 200.332,243.200 200.285 C 243.200 200.238,244.785 200.200,246.722 200.200 L 250.245 200.200 250.135 200.850 C 250.074 201.208,249.099 209.038,247.968 218.250 L 245.911 235.000 242.706 234.999 L 239.500 234.998 236.600 224.657 L 233.700 214.316 233.564 216.508 C 233.449 218.344,231.870 231.814,231.484 234.250 L 231.365 235.000 227.960 235.000 L 224.555 235.000 224.665 234.350 C 224.726 233.993,225.701 226.163,226.832 216.950 L 228.889 200.200 232.110 200.200 L 235.331 200.200 238.072 210.050 M264.900 206.278 C 260.354 208.261,257.898 224.467,261.584 228.153 C 264.462 231.031,268.168 226.832,269.485 219.200 C 271.021 210.297,268.966 204.503,264.900 206.278 M159.834 211.400 C 159.162 214.713,157.354 220.881,156.301 223.450 C 156.169 223.772,156.351 223.800,158.579 223.800 C 160.234 223.800,161.000 223.729,161.000 223.576 C 161.000 223.452,160.858 221.810,160.685 219.926 C 160.512 218.042,160.309 215.060,160.234 213.300 L 160.097 210.100 159.834 211.400 M212.634 211.400 C 211.962 214.713,210.154 220.881,209.101 223.450 C 208.969 223.772,209.151 223.800,211.379 223.800 C 213.034 223.800,213.800 223.729,213.800 223.576 C 213.800 223.452,213.658 221.810,213.485 219.926 C 213.312 218.042,213.109 215.060,213.034 213.300 L 212.897 210.100 212.634 211.400 M32.055 240.375 C 34.230 241.929,36.107 243.200,36.227 243.200 C 36.404 243.200,41.410 239.561,43.632 237.817 C 43.924 237.588,44.227 237.400,44.305 237.400 C 44.480 237.400,44.545 237.173,42.821 242.586 C 42.035 245.053,41.474 247.123,41.574 247.186 C 43.128 248.163,49.551 252.918,49.477 253.037 C 49.422 253.127,47.188 253.200,44.513 253.200 C 40.861 253.200,39.600 253.262,39.451 253.450 C 39.247 253.708,39.127 254.066,37.399 259.550 C 36.836 261.338,36.310 262.800,36.230 262.800 C 36.150 262.800,35.369 260.674,34.493 258.076 L 32.900 253.352 27.950 253.443 C 25.227 253.494,23.000 253.469,23.000 253.389 C 23.000 253.268,24.087 252.431,28.500 249.152 C 29.876 248.130,30.800 247.363,30.800 247.244 C 30.800 247.163,30.080 244.944,29.200 242.312 C 27.515 237.273,27.449 237.030,27.850 237.350 C 27.988 237.460,29.880 238.821,32.055 240.375 M370.603 242.302 C 368.754 247.844,368.764 247.379,370.467 248.534 C 370.925 248.845,371.345 249.146,371.400 249.203 C 371.455 249.260,372.693 250.192,374.150 251.275 C 375.608 252.357,376.800 253.309,376.800 253.389 C 376.800 253.469,374.572 253.494,371.850 253.443 L 366.900 253.352 365.307 258.076 C 364.431 260.674,363.651 262.800,363.574 262.800 C 363.424 262.800,363.223 262.214,361.587 257.000 C 361.018 255.185,360.462 253.588,360.352 253.450 C 360.201 253.262,358.938 253.200,355.287 253.200 C 352.612 253.200,350.378 253.127,350.323 253.037 C 350.249 252.918,356.672 248.163,358.226 247.186 C 358.326 247.123,357.765 245.053,356.979 242.586 C 355.255 237.173,355.320 237.400,355.495 237.400 C 355.573 237.400,355.876 237.588,356.168 237.817 C 358.388 239.559,363.396 243.200,363.572 243.200 C 363.692 243.200,365.660 241.860,367.945 240.221 C 370.230 238.583,372.133 237.273,372.173 237.311 C 372.213 237.349,371.507 239.595,370.603 242.302 M210.000 282.675 C 222.838 287.868,228.226 290.049,231.850 291.521 C 239.031 294.437,241.507 295.442,245.500 297.059 C 254.671 300.773,261.528 303.551,266.200 305.446 C 268.895 306.539,274.070 308.636,277.700 310.106 C 281.330 311.576,286.055 313.492,288.200 314.365 C 290.345 315.238,295.115 317.172,298.800 318.664 C 302.485 320.156,307.705 322.271,310.400 323.364 C 313.095 324.457,317.865 326.391,321.000 327.661 C 324.135 328.931,327.105 330.151,327.600 330.371 L 328.500 330.772 200.100 330.780 C 128.231 330.784,71.832 330.712,72.000 330.616 C 72.165 330.521,75.090 329.317,78.500 327.940 C 81.910 326.563,85.960 324.924,87.500 324.298 C 93.091 322.024,96.593 320.604,101.300 318.699 C 103.940 317.631,108.935 315.607,112.400 314.200 C 115.865 312.793,121.085 310.676,124.000 309.496 C 126.915 308.316,131.505 306.456,134.200 305.363 C 136.895 304.270,142.070 302.174,145.700 300.704 C 149.330 299.234,154.325 297.209,156.800 296.205 C 159.275 295.200,164.090 293.247,167.500 291.865 C 170.910 290.483,175.905 288.457,178.600 287.364 C 189.061 283.119,197.948 279.520,199.000 279.102 C 199.736 278.810,200.232 278.720,200.500 278.830 C 200.720 278.920,204.995 280.651,210.000 282.675 M63.817 286.550 C 63.826 288.832,63.849 291.060,63.867 291.500 L 63.900 292.300 65.701 292.900 C 66.692 293.230,68.829 293.905,70.450 294.400 C 73.653 295.378,73.885 295.566,72.450 296.017 C 71.927 296.181,69.813 296.892,67.750 297.597 L 64.000 298.879 64.000 303.956 C 64.000 307.029,63.926 309.007,63.813 308.967 C 63.709 308.930,62.303 307.117,60.688 304.938 C 58.428 301.889,57.677 301.006,57.426 301.107 C 57.247 301.180,55.287 301.859,53.071 302.618 C 50.855 303.376,48.898 304.052,48.721 304.120 C 48.096 304.359,48.426 303.770,50.830 300.354 C 52.167 298.454,53.421 296.669,53.618 296.387 L 53.975 295.874 50.887 291.731 C 49.189 289.453,47.800 287.515,47.800 287.425 C 47.800 287.335,50.057 287.975,52.816 288.848 C 55.574 289.721,57.858 290.405,57.890 290.368 C 58.037 290.199,62.531 283.819,62.974 283.150 C 63.755 281.972,63.799 282.151,63.817 286.550 M336.826 283.150 C 337.269 283.819,341.763 290.199,341.910 290.368 C 341.942 290.405,344.226 289.721,346.984 288.848 C 349.743 287.975,352.000 287.335,352.000 287.425 C 352.000 287.515,350.611 289.453,348.913 291.731 L 345.825 295.874 346.182 296.387 C 346.379 296.669,347.633 298.454,348.970 300.354 C 351.374 303.770,351.704 304.359,351.079 304.120 C 350.902 304.052,348.945 303.376,346.729 302.618 C 344.513 301.859,342.553 301.180,342.374 301.107 C 342.123 301.006,341.372 301.889,339.112 304.938 C 337.497 307.117,336.091 308.930,335.987 308.967 C 335.874 309.007,335.800 307.029,335.800 303.956 L 335.800 298.879 332.050 297.597 C 329.988 296.892,327.873 296.181,327.350 296.017 C 325.915 295.566,326.147 295.378,329.350 294.400 C 330.971 293.905,333.108 293.230,334.099 292.900 L 335.900 292.300 335.933 291.500 C 335.951 291.060,335.974 288.832,335.983 286.550 C 336.001 282.151,336.045 281.972,336.826 283.150 " stroke="none" fill="#010080" fill-rule="evenodd"></path><path id="path2" d="M143.250 28.500 C 143.253 28.940,143.294 29.096,143.341 28.848 C 143.389 28.599,143.387 28.239,143.337 28.048 C 143.287 27.856,143.248 28.060,143.250 28.500 M256.450 28.500 C 256.453 28.940,256.494 29.096,256.541 28.848 C 256.589 28.599,256.587 28.239,256.537 28.048 C 256.487 27.856,256.448 28.060,256.450 28.500 M143.650 42.300 C 143.653 42.740,143.694 42.896,143.741 42.648 C 143.789 42.399,143.787 42.039,143.737 41.848 C 143.687 41.656,143.648 41.860,143.650 42.300 M256.050 42.300 C 256.053 42.740,256.094 42.896,256.141 42.648 C 256.189 42.399,256.187 42.039,256.137 41.848 C 256.087 41.656,256.048 41.860,256.050 42.300 M143.860 49.200 C 143.860 49.805,143.897 50.053,143.943 49.750 C 143.989 49.448,143.989 48.953,143.943 48.650 C 143.897 48.348,143.860 48.595,143.860 49.200 M255.860 49.200 C 255.860 49.805,255.897 50.053,255.943 49.750 C 255.989 49.448,255.989 48.953,255.943 48.650 C 255.897 48.348,255.860 48.595,255.860 49.200 M112.653 66.144 C 112.957 66.189,113.407 66.188,113.653 66.141 C 113.899 66.093,113.650 66.056,113.100 66.057 C 112.550 66.059,112.349 66.098,112.653 66.144 M286.253 66.144 C 286.557 66.189,287.007 66.188,287.253 66.141 C 287.499 66.093,287.250 66.056,286.700 66.057 C 286.150 66.059,285.949 66.098,286.253 66.144 M92.146 66.544 C 92.501 66.589,93.131 66.589,93.546 66.546 C 93.960 66.503,93.670 66.467,92.900 66.466 C 92.130 66.465,91.790 66.500,92.146 66.544 M306.146 66.544 C 306.501 66.589,307.131 66.589,307.546 66.546 C 307.960 66.503,307.670 66.467,306.900 66.466 C 306.130 66.465,305.790 66.500,306.146 66.544 M67.869 88.900 C 67.869 89.780,67.904 90.115,67.947 89.645 C 67.989 89.174,67.988 88.454,67.945 88.045 C 67.902 87.635,67.868 88.020,67.869 88.900 M331.869 88.900 C 331.869 89.780,331.904 90.115,331.947 89.645 C 331.989 89.174,331.988 88.454,331.945 88.045 C 331.902 87.635,331.868 88.020,331.869 88.900 M68.271 106.500 C 68.270 107.490,68.304 107.920,68.346 107.456 C 68.388 106.992,68.389 106.182,68.347 105.656 C 68.306 105.130,68.272 105.510,68.271 106.500 M331.471 106.500 C 331.470 107.490,331.504 107.920,331.546 107.456 C 331.588 106.992,331.589 106.182,331.547 105.656 C 331.506 105.130,331.472 105.510,331.471 106.500 M25.800 138.755 C 25.800 138.841,26.183 138.881,26.650 138.845 C 28.051 138.736,28.171 138.648,26.950 138.623 C 26.318 138.610,25.800 138.670,25.800 138.755 M372.000 138.713 C 372.714 138.870,374.000 138.898,374.000 138.755 C 374.000 138.670,373.483 138.610,372.850 138.623 C 372.218 138.636,371.835 138.676,372.000 138.713 M43.552 138.941 C 43.801 138.989,44.161 138.987,44.352 138.937 C 44.544 138.887,44.340 138.848,43.900 138.850 C 43.460 138.853,43.304 138.894,43.552 138.941 M45.253 138.944 C 45.557 138.989,46.007 138.988,46.253 138.941 C 46.499 138.893,46.250 138.856,45.700 138.857 C 45.150 138.859,44.949 138.898,45.253 138.944 M353.653 138.944 C 353.957 138.989,354.407 138.988,354.653 138.941 C 354.899 138.893,354.650 138.856,354.100 138.857 C 353.550 138.859,353.349 138.898,353.653 138.944 M355.552 138.941 C 355.801 138.989,356.161 138.987,356.352 138.937 C 356.544 138.887,356.340 138.848,355.900 138.850 C 355.460 138.853,355.304 138.894,355.552 138.941 M24.280 189.300 C 24.280 190.950,24.311 191.598,24.349 190.741 C 24.386 189.883,24.386 188.533,24.348 187.741 C 24.310 186.948,24.280 187.650,24.280 189.300 M375.480 189.300 C 375.480 190.950,375.511 191.598,375.549 190.741 C 375.586 189.883,375.586 188.533,375.548 187.741 C 375.510 186.948,375.480 187.650,375.480 189.300 M37.900 188.507 C 37.398 188.749,37.381 188.776,37.800 188.676 C 38.075 188.609,38.386 188.475,38.490 188.378 C 38.749 188.135,38.607 188.167,37.900 188.507 M361.200 188.315 C 361.200 188.450,362.239 188.828,362.338 188.729 C 362.383 188.683,362.146 188.551,361.810 188.434 C 361.475 188.317,361.200 188.263,361.200 188.315 M24.470 208.000 C 24.470 208.935,24.504 209.318,24.546 208.850 C 24.589 208.382,24.589 207.618,24.546 207.150 C 24.504 206.683,24.470 207.065,24.470 208.000 M375.270 208.000 C 375.270 208.935,375.304 209.318,375.346 208.850 C 375.389 208.382,375.389 207.618,375.346 207.150 C 375.304 206.683,375.270 207.065,375.270 208.000 M42.000 239.024 C 41.303 239.635,41.303 239.636,41.944 239.210 C 42.298 238.974,42.641 238.696,42.706 238.591 C 42.899 238.279,42.739 238.377,42.000 239.024 M357.072 238.554 C 357.230 238.810,358.400 239.676,358.400 239.537 C 358.400 239.488,358.070 239.195,357.666 238.887 C 357.262 238.579,356.995 238.430,357.072 238.554 M49.281 252.769 C 49.384 252.937,48.885 253.011,47.462 253.042 L 45.500 253.083 47.382 253.149 C 49.170 253.213,49.944 253.036,49.387 252.692 C 49.226 252.593,49.189 252.620,49.281 252.769 M350.299 252.801 C 350.093 253.134,350.639 253.220,352.516 253.149 L 354.300 253.082 352.338 253.041 C 351.091 253.015,350.421 252.927,350.500 252.800 C 350.568 252.690,350.579 252.600,350.524 252.600 C 350.469 252.600,350.368 252.691,350.299 252.801 M23.240 253.040 C 22.828 253.452,22.973 253.601,23.750 253.568 L 24.500 253.536 23.837 253.454 C 23.288 253.387,23.215 253.323,23.411 253.086 C 23.699 252.739,23.575 252.705,23.240 253.040 M376.363 253.036 C 376.597 253.335,376.552 253.382,375.963 253.454 L 375.300 253.536 376.050 253.568 C 376.865 253.603,376.998 253.405,376.450 252.974 C 376.136 252.728,376.127 252.734,376.363 253.036 M198.800 279.178 C 197.944 279.519,189.262 283.037,178.600 287.364 C 175.905 288.457,170.910 290.483,167.500 291.865 C 164.090 293.247,159.275 295.200,156.800 296.205 C 154.325 297.209,149.330 299.234,145.700 300.704 C 142.070 302.174,136.895 304.270,134.200 305.363 C 131.505 306.456,126.915 308.316,124.000 309.496 C 121.085 310.676,115.865 312.793,112.400 314.200 C 108.935 315.607,103.940 317.631,101.300 318.699 C 96.593 320.604,93.091 322.024,87.500 324.298 C 85.960 324.924,81.910 326.563,78.500 327.940 C 75.090 329.317,72.165 330.521,72.000 330.616 C 71.831 330.712,88.005 330.791,108.904 330.794 L 146.107 330.800 153.506 323.650 C 157.575 319.718,168.778 308.904,178.402 299.620 C 196.619 282.047,199.964 278.794,199.799 278.809 C 199.744 278.815,199.295 278.980,198.800 279.178 M63.885 303.000 C 63.885 305.365,63.914 306.332,63.949 305.150 C 63.985 303.968,63.985 302.032,63.949 300.850 C 63.914 299.668,63.885 300.635,63.885 303.000 M335.885 303.000 C 335.885 305.365,335.914 306.332,335.949 305.150 C 335.985 303.968,335.985 302.032,335.949 300.850 C 335.914 299.668,335.885 300.635,335.885 303.000 " stroke="none" fill="#009246" fill-rule="evenodd"></path><path id="path3" d="M202.400 280.855 C 203.555 281.992,212.282 290.432,221.794 299.611 C 231.306 308.790,242.465 319.563,246.592 323.550 L 254.096 330.800 291.298 330.786 L 328.500 330.772 327.600 330.371 C 327.105 330.151,324.135 328.931,321.000 327.661 C 317.865 326.391,313.095 324.457,310.400 323.364 C 307.705 322.271,302.485 320.156,298.800 318.664 C 295.115 317.172,290.345 315.238,288.200 314.365 C 286.055 313.492,281.330 311.576,277.700 310.106 C 274.070 308.636,268.895 306.539,266.200 305.446 C 261.528 303.551,254.671 300.773,245.500 297.059 C 241.507 295.442,239.031 294.437,231.850 291.521 C 230.118 290.817,226.540 289.367,223.900 288.298 C 221.260 287.230,215.050 284.716,210.100 282.711 C 205.150 280.707,200.920 279.004,200.700 278.928 C 200.480 278.851,201.245 279.719,202.400 280.855 " stroke="none" fill="#e30c2c" fill-rule="evenodd"></path><path id="path4" d="M198.304 19.588 L 196.711 24.394 191.438 24.447 L 186.165 24.500 190.284 27.472 C 192.550 29.106,194.453 30.524,194.514 30.623 C 194.575 30.722,193.944 32.860,193.113 35.375 C 192.281 37.890,191.600 40.005,191.600 40.074 C 191.600 40.392,192.151 40.053,195.024 37.971 C 196.716 36.746,198.505 35.449,199.001 35.091 L 199.901 34.438 203.882 37.319 C 207.604 40.014,208.200 40.394,208.200 40.074 C 208.200 40.005,207.519 37.890,206.687 35.375 C 205.856 32.860,205.225 30.722,205.286 30.623 C 205.347 30.524,207.250 29.106,209.516 27.472 L 213.635 24.500 208.363 24.447 L 203.092 24.394 201.494 19.588 L 199.897 14.782 198.304 19.588 M143.311 28.317 C 143.364 30.178,143.447 32.397,143.497 33.248 C 143.606 35.117,144.115 34.770,138.262 36.813 C 135.932 37.626,134.060 38.327,134.104 38.371 C 134.147 38.414,136.324 39.091,138.941 39.875 L 143.700 41.300 143.841 45.700 C 143.919 48.120,144.009 50.415,144.041 50.800 C 144.097 51.469,144.228 51.316,146.979 47.340 C 148.778 44.741,149.955 43.217,150.115 43.278 C 150.837 43.555,159.255 46.011,159.306 45.960 C 159.372 45.894,158.755 45.067,155.552 40.930 C 153.876 38.766,153.448 38.088,153.593 37.830 C 153.695 37.649,155.031 35.700,156.562 33.500 C 158.094 31.300,159.330 29.479,159.309 29.453 C 159.289 29.426,157.102 30.169,154.451 31.103 C 148.767 33.104,149.401 33.024,148.543 31.850 C 148.161 31.328,147.329 30.225,146.693 29.400 C 144.569 26.642,143.530 25.302,143.371 25.117 C 143.285 25.016,143.258 26.456,143.311 28.317 M255.766 25.950 C 255.371 26.473,254.352 27.800,253.501 28.900 C 252.650 30.000,251.641 31.328,251.258 31.850 C 250.399 33.024,251.033 33.104,245.349 31.103 C 242.698 30.169,240.511 29.426,240.491 29.453 C 240.470 29.479,241.706 31.300,243.238 33.500 C 244.769 35.700,246.105 37.649,246.207 37.830 C 246.352 38.088,245.924 38.766,244.248 40.930 C 241.045 45.067,240.428 45.894,240.494 45.960 C 240.545 46.011,248.963 43.555,249.685 43.278 C 249.845 43.217,251.022 44.741,252.821 47.340 C 255.572 51.316,255.703 51.469,255.759 50.800 C 255.791 50.415,255.881 48.120,255.959 45.700 L 256.100 41.300 260.859 39.875 C 263.476 39.091,265.653 38.414,265.696 38.371 C 265.740 38.327,263.868 37.626,261.538 36.813 C 255.685 34.770,256.194 35.117,256.303 33.248 C 256.423 31.190,256.596 25.000,256.534 25.000 C 256.507 25.000,256.162 25.428,255.766 25.950 M104.356 53.432 L 100.213 56.614 96.156 53.827 C 93.925 52.293,92.076 51.061,92.048 51.089 C 92.019 51.116,92.478 52.480,93.067 54.119 C 94.885 59.172,95.290 60.378,95.193 60.456 C 95.142 60.498,93.368 61.857,91.250 63.475 C 89.132 65.094,87.400 66.453,87.400 66.496 C 87.400 66.539,89.671 66.558,92.447 66.537 L 97.493 66.500 98.251 68.600 C 100.500 74.828,100.885 75.798,101.014 75.558 C 101.090 75.416,101.763 73.252,102.510 70.750 L 103.866 66.200 107.333 66.175 C 109.240 66.161,110.890 66.127,111.000 66.100 C 111.110 66.073,111.808 66.036,112.550 66.019 C 113.665 65.993,113.842 65.945,113.566 65.744 C 113.382 65.610,111.523 64.340,109.435 62.923 L 105.637 60.347 105.936 59.323 C 106.101 58.760,106.773 56.514,107.431 54.330 C 108.089 52.147,108.598 50.335,108.563 50.305 C 108.529 50.274,106.635 51.681,104.356 53.432 M291.200 50.308 C 291.200 50.386,291.732 52.216,292.382 54.375 C 293.033 56.534,293.699 58.760,293.864 59.323 L 294.163 60.347 290.365 62.923 C 288.277 64.340,286.418 65.610,286.234 65.744 C 285.958 65.945,286.135 65.993,287.250 66.019 C 287.993 66.036,288.690 66.073,288.800 66.100 C 288.910 66.127,290.560 66.161,292.467 66.175 L 295.934 66.200 297.290 70.750 C 298.037 73.252,298.710 75.416,298.786 75.558 C 298.915 75.798,299.300 74.828,301.549 68.600 L 302.307 66.500 307.353 66.537 C 310.129 66.558,312.400 66.539,312.400 66.496 C 312.400 66.453,310.668 65.094,308.550 63.475 C 306.433 61.857,304.658 60.498,304.607 60.456 C 304.510 60.378,304.915 59.172,306.733 54.119 C 307.322 52.480,307.781 51.116,307.752 51.089 C 307.724 51.061,305.874 52.294,303.643 53.827 L 299.585 56.616 297.043 54.670 C 295.644 53.599,293.757 52.148,292.850 51.445 C 291.943 50.742,291.200 50.230,291.200 50.308 M64.634 88.610 C 61.502 93.189,61.723 93.013,59.883 92.416 C 57.559 91.661,52.361 90.173,52.292 90.242 C 52.253 90.280,53.518 91.974,55.102 94.006 C 56.687 96.038,57.987 97.820,57.991 97.967 C 57.996 98.114,56.821 99.952,55.381 102.050 C 53.941 104.149,52.721 105.972,52.672 106.102 C 52.622 106.231,54.498 105.667,56.841 104.848 C 62.622 102.826,61.718 102.592,65.130 107.000 C 66.705 109.035,67.995 110.767,67.997 110.850 C 67.999 110.933,68.075 111.000,68.167 111.000 C 68.259 111.000,68.295 108.728,68.247 105.950 L 68.159 100.900 72.780 99.311 C 75.321 98.437,77.399 97.672,77.399 97.611 C 77.398 97.550,76.026 97.115,74.349 96.645 C 72.672 96.175,70.571 95.560,69.680 95.280 L 68.060 94.770 67.930 92.354 C 67.858 91.025,67.800 88.691,67.800 87.169 C 67.800 85.646,67.733 84.404,67.650 84.410 C 67.567 84.415,66.210 86.305,64.634 88.610 M332.000 87.169 C 332.000 88.691,331.942 91.025,331.870 92.354 L 331.740 94.770 330.120 95.280 C 329.229 95.560,327.128 96.175,325.451 96.645 C 323.774 97.115,322.402 97.550,322.401 97.611 C 322.401 97.672,324.479 98.437,327.020 99.311 L 331.641 100.900 331.553 105.950 C 331.505 108.728,331.541 111.000,331.633 111.000 C 331.725 111.000,331.801 110.933,331.803 110.850 C 331.805 110.767,333.095 109.035,334.670 107.000 C 338.082 102.592,337.178 102.826,342.959 104.848 C 345.302 105.667,347.178 106.231,347.128 106.102 C 347.079 105.972,345.859 104.149,344.419 102.050 C 342.979 99.952,341.804 98.114,341.809 97.967 C 341.813 97.820,343.113 96.038,344.698 94.006 C 346.282 91.974,347.547 90.280,347.508 90.242 C 347.439 90.173,342.241 91.661,339.917 92.416 C 338.077 93.013,338.298 93.189,335.166 88.610 C 333.590 86.305,332.233 84.415,332.150 84.410 C 332.068 84.404,332.000 85.646,332.000 87.169 M37.578 133.910 L 35.900 138.830 30.902 138.808 L 25.903 138.787 29.802 141.696 C 31.946 143.295,33.724 144.675,33.753 144.762 C 33.783 144.849,33.130 146.920,32.303 149.364 C 31.477 151.808,30.800 153.903,30.800 154.019 C 30.800 154.136,31.407 153.805,32.150 153.284 C 37.908 149.243,38.971 148.559,39.242 148.720 C 39.384 148.805,41.192 150.128,43.259 151.661 C 45.327 153.194,47.058 154.408,47.107 154.360 C 47.155 154.312,46.980 153.603,46.717 152.786 C 46.455 151.969,45.955 150.355,45.607 149.200 C 45.258 148.045,44.844 146.701,44.687 146.214 C 44.209 144.740,44.272 144.646,46.763 143.100 C 46.941 142.990,47.645 142.495,48.328 142.000 C 49.012 141.505,50.213 140.650,50.997 140.100 L 52.422 139.100 47.516 139.047 C 43.072 138.998,42.593 138.960,42.422 138.641 C 42.319 138.448,41.599 136.232,40.823 133.717 C 40.047 131.203,39.377 129.110,39.334 129.067 C 39.291 129.024,38.501 131.204,37.578 133.910 M359.821 131.000 C 359.467 132.155,358.755 134.405,358.239 136.000 L 357.300 138.900 352.339 139.000 L 347.377 139.100 348.803 140.100 C 349.587 140.650,350.788 141.505,351.472 142.000 C 352.155 142.495,352.859 142.990,353.037 143.100 C 355.528 144.646,355.591 144.740,355.113 146.214 C 354.956 146.701,354.542 148.045,354.193 149.200 C 353.845 150.355,353.345 151.969,353.083 152.786 C 352.820 153.603,352.645 154.312,352.693 154.360 C 352.742 154.408,354.473 153.194,356.541 151.661 C 358.608 150.128,360.416 148.805,360.558 148.720 C 360.829 148.559,361.892 149.243,367.650 153.284 C 368.393 153.805,369.000 154.136,369.000 154.019 C 369.000 153.903,368.323 151.808,367.497 149.364 C 366.670 146.920,366.017 144.849,366.047 144.762 C 366.076 144.675,367.854 143.295,369.998 141.696 L 373.897 138.787 368.898 138.808 L 363.900 138.829 362.262 134.065 C 361.361 131.444,360.588 129.210,360.544 129.100 C 360.500 128.990,360.175 129.845,359.821 131.000 M24.357 188.050 L 24.415 193.300 20.246 194.674 C 17.953 195.430,15.827 196.151,15.521 196.276 C 15.009 196.485,15.333 196.615,19.532 197.883 C 22.044 198.641,24.168 199.320,24.250 199.391 C 24.333 199.463,24.457 201.721,24.525 204.410 C 24.594 207.100,24.667 209.321,24.689 209.347 C 24.726 209.392,26.315 207.200,29.161 203.181 C 30.667 201.054,29.970 201.094,35.498 202.812 C 37.997 203.589,40.077 204.190,40.120 204.147 C 40.162 204.104,38.976 202.421,37.482 200.406 C 35.989 198.391,34.669 196.584,34.548 196.391 C 34.333 196.047,35.939 193.591,39.162 189.338 C 39.646 188.699,40.002 188.135,39.953 188.086 C 39.903 188.037,37.780 188.701,35.235 189.563 L 30.607 191.129 27.554 186.973 C 25.874 184.686,24.455 182.812,24.400 182.808 C 24.345 182.803,24.326 185.162,24.357 188.050 M372.246 186.973 L 369.193 191.129 364.565 189.563 C 362.020 188.701,359.897 188.037,359.847 188.086 C 359.798 188.135,360.154 188.699,360.638 189.338 C 363.861 193.591,365.467 196.047,365.252 196.391 C 365.131 196.584,363.811 198.391,362.318 200.406 C 360.824 202.421,359.638 204.104,359.680 204.147 C 359.723 204.190,361.803 203.589,364.302 202.812 C 369.830 201.094,369.133 201.054,370.639 203.181 C 373.485 207.200,375.074 209.392,375.111 209.347 C 375.133 209.321,375.206 207.100,375.275 204.410 C 375.343 201.721,375.467 199.463,375.550 199.391 C 375.632 199.320,377.756 198.641,380.268 197.883 C 384.467 196.615,384.791 196.485,384.279 196.276 C 383.973 196.151,381.847 195.430,379.554 194.674 L 375.385 193.300 375.443 188.050 C 375.474 185.162,375.455 182.803,375.400 182.808 C 375.345 182.812,373.926 184.686,372.246 186.973 M29.316 242.413 C 30.255 245.180,30.995 247.459,30.961 247.477 C 30.871 247.526,26.331 250.897,24.650 252.163 C 23.853 252.764,23.200 253.300,23.200 253.355 C 23.200 253.410,25.356 253.406,27.991 253.347 C 31.489 253.267,32.832 253.300,32.964 253.469 C 33.065 253.596,33.801 255.680,34.600 258.100 C 35.400 260.520,36.099 262.579,36.155 262.676 C 36.210 262.772,36.924 260.747,37.740 258.176 C 38.557 255.604,39.291 253.433,39.371 253.352 C 39.451 253.271,41.717 253.146,44.408 253.075 C 47.099 253.005,49.325 252.927,49.355 252.902 C 49.385 252.877,47.608 251.577,45.405 250.014 C 43.202 248.450,41.400 247.036,41.400 246.872 C 41.400 246.601,43.093 241.222,43.988 238.650 C 44.430 237.380,44.351 237.365,42.953 238.450 C 42.351 238.918,41.609 239.480,41.305 239.700 C 41.000 239.920,39.974 240.692,39.025 241.415 C 38.076 242.138,37.057 242.888,36.759 243.082 L 36.219 243.434 33.459 241.487 C 31.942 240.416,30.115 239.117,29.400 238.601 C 28.685 238.085,27.990 237.599,27.855 237.522 C 27.720 237.445,28.378 239.646,29.316 242.413 M370.872 238.256 C 370.227 238.727,368.323 240.084,366.639 241.272 L 363.578 243.432 363.039 243.081 C 362.743 242.888,361.724 242.138,360.775 241.415 C 359.826 240.692,358.800 239.920,358.495 239.700 C 358.191 239.480,357.449 238.918,356.847 238.450 C 355.449 237.365,355.370 237.380,355.812 238.650 C 356.707 241.222,358.400 246.601,358.400 246.872 C 358.400 247.036,356.598 248.450,354.395 250.014 C 352.192 251.577,350.415 252.877,350.445 252.902 C 350.475 252.927,352.701 253.005,355.392 253.075 C 358.083 253.146,360.349 253.271,360.429 253.352 C 360.509 253.433,361.243 255.604,362.060 258.176 C 362.876 260.747,363.590 262.772,363.645 262.676 C 363.701 262.579,364.400 260.520,365.200 258.100 C 365.999 255.680,366.735 253.596,366.836 253.469 C 366.968 253.300,368.311 253.267,371.809 253.347 C 374.444 253.406,376.600 253.410,376.600 253.355 C 376.600 253.300,375.947 252.764,375.150 252.163 C 373.469 250.897,368.929 247.526,368.839 247.477 C 368.805 247.459,369.544 245.184,370.481 242.422 C 371.418 239.660,372.153 237.400,372.114 237.400 C 372.076 237.400,371.517 237.785,370.872 238.256 M60.810 286.452 C 57.567 291.091,58.194 290.678,55.634 289.864 C 54.460 289.491,52.263 288.793,50.750 288.313 C 49.238 287.833,48.001 287.499,48.002 287.570 C 48.003 287.642,49.316 289.455,50.919 291.600 C 54.394 296.250,54.194 295.836,53.463 296.866 C 49.967 301.796,48.430 304.000,48.489 304.000 C 48.528 304.000,50.564 303.325,53.013 302.500 C 55.463 301.675,57.568 301.000,57.691 301.000 C 57.814 301.000,59.211 302.755,60.795 304.900 C 62.379 307.045,63.725 308.800,63.787 308.800 C 63.849 308.800,63.875 306.562,63.843 303.827 L 63.787 298.854 65.543 298.230 C 66.510 297.888,68.676 297.144,70.358 296.578 C 72.040 296.012,73.383 295.517,73.343 295.477 C 73.277 295.411,66.636 293.292,64.700 292.719 L 63.900 292.483 63.847 287.541 C 63.817 284.824,63.727 282.601,63.647 282.602 C 63.566 282.603,62.290 284.335,60.810 286.452 M335.953 287.541 L 335.900 292.483 335.100 292.719 C 333.164 293.292,326.523 295.411,326.457 295.477 C 326.417 295.517,327.760 296.012,329.442 296.578 C 331.124 297.144,333.290 297.888,334.257 298.230 L 336.013 298.854 335.957 303.827 C 335.925 306.562,335.951 308.800,336.013 308.800 C 336.075 308.800,337.421 307.045,339.005 304.900 C 340.589 302.755,341.986 301.000,342.109 301.000 C 342.232 301.000,344.337 301.675,346.787 302.500 C 349.236 303.325,351.272 304.000,351.311 304.000 C 351.370 304.000,349.833 301.796,346.337 296.866 C 345.606 295.836,345.406 296.250,348.881 291.600 C 350.484 289.455,351.797 287.642,351.798 287.570 C 351.799 287.499,350.563 287.833,349.050 288.313 C 347.538 288.793,345.340 289.491,344.166 289.864 C 341.606 290.678,342.233 291.091,338.990 286.452 C 337.510 284.335,336.234 282.603,336.153 282.602 C 336.073 282.601,335.983 284.824,335.953 287.541 " stroke="none" fill="#ffe400" fill-rule="evenodd"></path></g></svg>